<?xml version="1.0" encoding="UTF-8"?>
<svg width="1018.601" height="289.035" 
viewBox="0 0 1018.601 289.035" 
preserveAspectRatio="xMinYMin"
xmlns:xlink="http://www.w3.org/1999/xlink"
xmlns="http://www.w3.org/2000/svg">
<!-- Generated by PQINA - https://pqina.nl/ -->
<title></title>
<g transform="rotate(NaN 509.3005 144.5175) translate(509.3005 144.5175) scale(NaN) translate(-509.3005 -144.5175) translate(0 0)">
<g transform="scale(1 1) translate(0 0)">
<svg xmlns="http://www.w3.org/2000/svg" viewBox="0 127.144 1018.601 289.035" style="overflow: visible;" width="1018.601" height="289.035">
    <g transform="matrix(0.307649, 0, 0, 0.296731, 265.906555, 192.603073)" id="401d5231-519b-4b18-8474-29c24a84997a" style=""></g>
    <g transform="matrix(0.307649, 0, 0, 0.296731, 265.906555, 192.603073)" id="98cff6c4-38df-45b2-b161-1dedfd96fb0a" style="">
        <rect style="stroke: none; stroke-width: 1; stroke-dasharray: none; stroke-linecap: butt; stroke-dashoffset: 0; stroke-linejoin: miter; stroke-miterlimit: 4; fill: rgb(0,0,0); fill-rule: nonzero; opacity: 1; visibility: hidden;" vector-effect="non-scaling-stroke" x="-540" y="-540" rx="0" ry="0" width="1080" height="1080"></rect>
    </g>
    <g transform="matrix(0.842181, 0, 0, 0.862281, 147.718246, 272.38916)" style="">
        <path style="stroke: none; stroke-width: 1; stroke-dasharray: none; stroke-linecap: butt; stroke-dashoffset: 0; stroke-linejoin: miter; stroke-miterlimit: 4; fill: rgb(0,0,0); fill-rule: nonzero; opacity: 1;" vector-effect="non-scaling-stroke" transform=" translate(-260.34, -260.63)" d="M 278.41 319.02 Q 271.42 321.09 264.18 321.62 Q 263.63 321.66 263.63 322.21 L 263.63 421.71 Q 263.63 421.89 263.45 421.89 L 256.77 421.89 Q 256.4 421.89 256.4 421.52 L 256.4 321.97999999999996 C 256.40028037754934 321.7777005013667 256.24201931537874 321.6106471579644 256.03999999999996 321.59999999999997 Q 248.90999999999997 321.35999999999996 241.42999999999995 319.07 Q 240.87999999999994 318.90999999999997 240.87999999999994 319.48 L 240.87999999999994 421.54 C 240.87999999999994 421.7222539674442 240.73225396744408 421.87 240.54999999999993 421.87 L 233.94999999999993 421.87 Q 233.66999999999993 421.87 233.66999999999993 421.6 L 233.66999999999993 316.54 C 233.67103836771437 316.3087557138842 233.53941169631696 316.09583021603544 233.32999999999993 315.99 Q 212.89999999999992 305.76 203.34999999999994 284.51 Q 203.09999999999994 283.96 202.48999999999992 283.96 L 98.38 283.96 Q 98.07 283.96 98.07 283.65 L 98.07 276.96 Q 98.07 276.76 98.27 276.76 L 199.91 276.76 Q 200.25 276.76 200.19 276.42 L 197.72 262.46000000000004 Q 197.62 261.85 197 261.85 L 98.35 261.85 C 98.20088311754569 261.85 98.08000000000001 261.7291168824543 98.08 261.58000000000004 L 98.08 254.78000000000003 Q 98.08 254.60000000000002 98.25 254.60000000000002 L 197.06 254.60000000000002 C 197.4480607378456 254.6008917443498 197.76875456091568 254.30216325162698 197.79 253.92000000000002 Q 198.19 246.99 200.16 240.14000000000001 C 200.19479902962658 240.01838112920518 200.17001812989582 239.8874689248418 200.0931759981438 239.786983060243 C 200.0163338663918 239.6864971956442 199.89648782630243 239.62828186331976 199.77 239.63000000000002 L 98.38 239.63000000000002 Q 98.07 239.63000000000002 98.07 239.31000000000003 L 98.07 232.69000000000003 Q 98.07 232.45000000000002 98.30999999999999 232.45000000000002 L 202.32999999999998 232.45000000000002 Q 202.88 232.45000000000002 203.11999999999998 231.94000000000003 Q 212.77999999999997 211.33000000000004 233.27999999999997 201.62000000000003 Q 233.66999999999996 201.43000000000004 233.66999999999996 201.00000000000003 L 233.66999999999996 99.7 C 233.66999999999996 99.53431457505077 233.79983742254902 99.4 233.95999999999995 99.4 L 240.54999999999995 99.4 C 240.7267311199458 99.4 240.86999999999995 99.54774603255585 240.86999999999995 99.73 L 240.86999999999995 198.22 C 240.87011331449858 198.35968026603962 240.93654182793227 198.49100939535785 241.0489922784731 198.57386762207213 C 241.16144272901394 198.65672584878644 241.30655547858996 198.68126922905432 241.43999999999994 198.64 Q 248.34999999999994 196.51 255.84999999999994 196.11999999999998 Q 256.4099999999999 196.08999999999997 256.4099999999999 195.52999999999997 L 256.4099999999999 99.68 C 256.4099999999999 99.59778288814975 256.44160705210953 99.51893317515106 256.49786796564393 99.46079689783217 C 256.55412887917834 99.40266062051327 256.6304350530481 99.37 256.7099999999999 99.37 L 263.2699999999999 99.37 Q 263.61999999999995 99.37 263.61999999999995 99.72 L 263.61999999999995 195.51999999999998 Q 263.61999999999995 196.05999999999997 264.15999999999997 196.1 Q 271.74999999999994 196.63 278.54999999999995 198.66 C 278.6672119831263 198.69446639071086 278.79380205899906 198.6720137031851 278.8920109510628 198.5993391230579 C 278.99021984312657 198.52666454293072 279.04869705161906 198.41216744002625 279.04999999999995 198.29 L 279.04999999999995 99.67 Q 279.04999999999995 99.39 279.3299999999999 99.39 L 286.0799999999999 99.39 Q 286.3999999999999 99.39 286.3999999999999 99.71 L 286.3999999999999 201.02999999999997 C 286.39942085004435 201.38360913688075 286.6015617833712 201.7062571650756 286.9199999999999 201.85999999999999 Q 307.1199999999999 211.64 317.1099999999999 232.04999999999998 Q 317.2999999999999 232.45 317.7699999999999 232.45 L 422.2899999999999 232.45 Q 422.6199999999999 232.45 422.6199999999999 232.78 L 422.6199999999999 239.39000000000001 C 422.6199999999999 239.4536519575615 422.59576792671584 239.51469689665726 422.5526345596728 239.5597056274848 C 422.5095011926297 239.60471435831232 422.45099979266297 239.63000000000002 422.3899999999999 239.63000000000002 L 320.5 239.63000000000002 C 320.36780076480045 239.63078377745796 320.2436860238899 239.69376553401344 320.16499601397965 239.79999704739234 C 320.08630600406934 239.9062285607712 320.0622258027227 240.04330997626292 320.1 240.17000000000002 Q 322.16 246.84 322.6 254.04000000000002 Q 322.64000000000004 254.61 323.21000000000004 254.61 L 422.29 254.61 Q 422.61 254.61 422.61 254.92000000000002 L 422.61 261.7 Q 422.61 261.84999999999997 422.46000000000004 261.84999999999997 L 323.04 261.84999999999997 C 322.75861551641276 261.84954888213235 322.5259270824506 262.06906627266267 322.51000000000005 262.34999999999997 Q 322.06000000000006 269.55999999999995 320.16 276.30999999999995 C 320.12817685214804 276.4167029760988 320.14902374176376 276.53218136363245 320.2161476236133 276.62102179549214 C 320.28327150546284 276.7098622273518 320.3886622375524 276.7614630450163 320.5 276.75999999999993 L 422.31 276.75999999999993 C 422.38691278205346 276.75999999999993 422.4606754167942 276.7905534837059 422.5150609665441 276.84493903345583 C 422.5694465162941 276.8993245832058 422.6 276.9730872179465 422.6 277.04999999999995 L 422.6 283.72999999999996 Q 422.6 283.95 422.38 283.95 L 317.96 283.95 Q 317.37 283.95 317.12 284.49 Q 307.43 305.6 286.85 315.75 Q 286.40000000000003 315.98 286.40000000000003 316.49 L 286.40000000000003 421.7 Q 286.40000000000003 421.88 286.22 421.88 L 279.29 421.88 Q 279.05 421.88 279.05 421.65 L 279.05 319.5 Q 279.05 318.84 278.41 319.02 M 264.98 217.73999999999998 C 264.98 214.7576623509137 262.5623376490863 212.33999999999997 259.58000000000004 212.33999999999997 C 258.1478309548665 212.33999999999997 256.77431982521205 212.90892693797323 255.76162338159267 213.9216233815926 C 254.7489269379733 214.93431982521201 254.18000000000004 216.30783095486643 254.18000000000004 217.73999999999998 C 254.18000000000004 219.17216904513353 254.7489269379733 220.54568017478795 255.76162338159267 221.55837661840735 C 256.77431982521205 222.57107306202673 258.1478309548665 223.14 259.58000000000004 223.14 C 262.5623376490863 223.14 264.98 220.72233764908626 264.98 217.73999999999998 M 273.67 235.26 Q 284.5 241.56 287.52000000000004 254.92 Q 287.58000000000004 255.14999999999998 287.82000000000005 255.14999999999998 L 291.51000000000005 255.14999999999998 C 291.5734187504693 255.15178693600902 291.6339597356463 255.12349389375257 291.6747310992394 255.07301506263724 C 291.7155024628326 255.02253623152188 291.7321394176188 254.95527563382387 291.72 254.89 Q 288.84000000000003 241.75 279.51000000000005 234.69 C 267.59000000000003 225.67 250.92000000000004 225.85 239.42000000000004 235.60999999999999 Q 231.26000000000005 242.52999999999997 228.97000000000006 254.51999999999998 Q 228.84000000000006 255.2 229.53000000000006 255.2 L 230.99000000000007 255.2 Q 231.63000000000005 255.2 231.78000000000006 254.57999999999998 C 236.20000000000005 236.39999999999998 256.49000000000007 225.26999999999998 273.6700000000001 235.26 M 259.7800000000001 286.96999999999997 C 273.9700000000001 286.97999999999996 284.5200000000001 276.79999999999995 286.3800000000001 262.92999999999995 Q 286.5000000000001 262.04999999999995 285.6100000000001 262.04999999999995 L 282.6900000000001 262.04999999999995 Q 282.2100000000001 262.04999999999995 282.17000000000013 261.56999999999994 Q 282.10000000000014 260.74999999999994 281.96000000000015 258.5799999999999 C 281.15000000000015 246.74999999999991 271.6200000000002 237.57999999999993 259.8000000000001 237.57999999999993 C 247.9700000000001 237.56999999999994 238.4400000000001 246.73999999999992 237.62000000000012 258.55999999999995 Q 237.48000000000013 260.73999999999995 237.4100000000001 261.55999999999995 Q 237.37000000000012 262.03999999999996 236.8900000000001 262.03999999999996 L 233.9700000000001 262.03 Q 233.08000000000013 262.03 233.2000000000001 262.90999999999997 C 235.0500000000001 276.78 245.5900000000001 286.96999999999997 259.7800000000001 286.96999999999997 M 305.1000000000001 257.86999999999995 C 305.1000000000001 254.89318519841197 302.68681480158807 252.47999999999996 299.7100000000001 252.47999999999996 C 296.7331851984121 252.47999999999996 294.3200000000001 254.893185198412 294.3200000000001 257.86999999999995 C 294.3200000000001 260.8468148015879 296.7331851984121 263.25999999999993 299.7100000000001 263.25999999999993 C 302.68681480158807 263.25999999999993 305.1000000000001 260.8468148015879 305.1000000000001 257.86999999999995 M 225.9600000000001 258.61999999999995 C 225.9600000000001 257.20374394425676 225.39739447244875 255.8454940493763 224.39595021153625 254.8440497884638 C 223.39450595062374 253.84260552755129 222.03625605574325 253.27999999999994 220.6200000000001 253.27999999999994 C 219.20374394425693 253.27999999999994 217.84549404937644 253.84260552755129 216.84404978846393 254.8440497884638 C 215.84260552755143 255.84549404937627 215.2800000000001 257.20374394425676 215.2800000000001 258.61999999999995 C 215.2800000000001 261.5692005640964 217.67079943590366 263.9599999999999 220.6200000000001 263.9599999999999 C 223.56920056409652 263.9599999999999 225.9600000000001 261.5692005640964 225.9600000000001 258.61999999999995 M 264.5100000000001 300.98999999999995 C 264.5100000000001 299.5657874495616 263.9442337672378 298.19990693729414 262.93716341497185 297.1928365850282 C 261.9300930627059 296.18576623276226 260.56421255043847 295.61999999999995 259.1400000000001 295.61999999999995 C 257.71578744956173 295.61999999999995 256.3499069372943 296.18576623276226 255.34283658502832 297.1928365850282 C 254.33576623276238 298.19990693729414 253.7700000000001 299.5657874495616 253.7700000000001 300.98999999999995 C 253.7700000000001 302.4142125504383 254.33576623276238 303.78009306270576 255.34283658502832 304.7871634149717 C 256.3499069372943 305.79423376723764 257.71578744956173 306.35999999999996 259.1400000000001 306.35999999999996 C 260.56421255043847 306.35999999999996 261.9300930627059 305.79423376723764 262.93716341497185 304.7871634149717 C 263.9442337672378 303.78009306270576 264.5100000000001 302.4142125504383 264.5100000000001 300.98999999999995" stroke-linecap="round"></path>
    </g>
    <g transform="matrix(0.842181, 0, 0, 0.862281, 104.183907, 151.994736)" id="SvgjsG1482" style="">
        <rect style="stroke: none; stroke-width: 1; stroke-dasharray: none; stroke-linecap: butt; stroke-dashoffset: 0; stroke-linejoin: miter; stroke-miterlimit: 4; fill: rgb(0,0,0); fill-rule: nonzero; opacity: 1;" vector-effect="non-scaling-stroke" x="-8.93" y="-8.66" rx="0.32" ry="0.32" width="17.86" height="17.32"></rect>
    </g>
    <g transform="matrix(0.842181, 0, 0, 0.862281, 191.071228, 153.569336)" id="SvgjsG1482" style="">
        <rect style="stroke: none; stroke-width: 1; stroke-dasharray: none; stroke-linecap: butt; stroke-dashoffset: 0; stroke-linejoin: miter; stroke-miterlimit: 4; fill: rgb(0,0,0); fill-rule: nonzero; opacity: 1;" vector-effect="non-scaling-stroke" x="-9" y="-8.63" rx="0.37" ry="0.37" width="18" height="17.26"></rect>
    </g>
    <g transform="matrix(0.842181, 0, 0, 0.862281, 191.006409, 188.123062)" id="SvgjsG1482" style="">
        <rect style="stroke: none; stroke-width: 1; stroke-dasharray: none; stroke-linecap: butt; stroke-dashoffset: 0; stroke-linejoin: miter; stroke-miterlimit: 4; fill: rgb(0,0,0); fill-rule: nonzero; opacity: 1;" vector-effect="non-scaling-stroke" x="-2.92" y="-15.29" rx="0.47" ry="0.47" width="5.84" height="30.58"></rect>
    </g>
    <g transform="matrix(0.842181, -0.006247, 0.006476, 0.862281, 104.915977, 181.399765)" id="SvgjsG1482" style="">
        <rect style="stroke: none; stroke-width: 1; stroke-dasharray: none; stroke-linecap: butt; stroke-dashoffset: 0; stroke-linejoin: miter; stroke-miterlimit: 4; fill: rgb(0,0,0); fill-rule: nonzero; opacity: 1;" vector-effect="non-scaling-stroke" x="-2.92" y="-6.18" rx="0.38" ry="0.38" width="5.84" height="12.36"></rect>
    </g>
    <g transform="matrix(0.842181, 0, 0, 0.862281, 147.873764, 208.317886)" style="">
        <path style="stroke: none; stroke-width: 1; stroke-dasharray: none; stroke-linecap: butt; stroke-dashoffset: 0; stroke-linejoin: miter; stroke-miterlimit: 4; fill: rgb(0,0,0); fill-rule: nonzero; opacity: 1;" vector-effect="non-scaling-stroke" transform=" translate(-260.47, -186.2)" d="M 191.15 195.95 L 191.15 214.75 C 191.15 214.9598682049357 190.9798682049357 215.13 190.77 215.13 L 185.63000000000002 215.13 C 185.42013179506432 215.13 185.25000000000003 214.9598682049357 185.25000000000003 214.75 L 185.25000000000003 195.96 C 185.25000000000003 195.7501317950643 185.07986820493574 195.58 184.87000000000003 195.58 L 158.25000000000003 195.58 C 158.04013179506433 195.58 157.87000000000003 195.40986820493572 157.87000000000003 195.20000000000002 L 157.87000000000003 190.10000000000002 C 157.87000000000003 189.89013179506432 158.04013179506433 189.72000000000003 158.25000000000003 189.72000000000003 L 184.77000000000004 189.72000000000003 C 184.97986820493574 189.72000000000003 185.15000000000003 189.54986820493573 185.15000000000003 189.34000000000003 L 185.15000000000003 157.6 C 185.15000000000003 157.3901317950643 185.32013179506433 157.22 185.53000000000003 157.22 L 190.73000000000002 157.22 C 190.93986820493572 157.22 191.11 157.3901317950643 191.11 157.6 L 191.11 189.34 C 191.11 189.5498682049357 191.2801317950643 189.72 191.49 189.72 L 206.05 189.72 C 206.2598682049357 189.72 206.43 189.5498682049357 206.43 189.34 L 206.43 173.53 C 206.43 173.3201317950643 206.6001317950643 173.15 206.81 173.15 L 211.93 173.15 C 212.1398682049357 173.15 212.31 173.3201317950643 212.31 173.53 L 212.31 214.81 C 212.31 215.0198682049357 212.1398682049357 215.19 211.93 215.19 L 206.78 215.19 C 206.5701317950643 215.19 206.4 215.0198682049357 206.4 214.81 L 206.4 195.95 C 206.4 195.7401317950643 206.2298682049357 195.57 206.02 195.57 L 191.53 195.57 C 191.3201317950643 195.57 191.15 195.7401317950643 191.15 195.95 M 363.06 191.81 L 363.06 197.02 C 363.06 197.2298682049357 362.8898682049357 197.4 362.68 197.4 L 309.04 197.4 C 308.83013179506435 197.4 308.66 197.2298682049357 308.66 197.02 L 308.66 191.8 C 308.66 191.5901317950643 308.83013179506435 191.42000000000002 309.04 191.42000000000002 L 329.27000000000004 191.42000000000002 C 329.4798682049357 191.42000000000002 329.65000000000003 191.24986820493572 329.65000000000003 191.04000000000002 L 329.65000000000003 166.29000000000002 C 329.65000000000003 166.08013179506432 329.82013179506436 165.91000000000003 330.03000000000003 165.91000000000003 L 335.15000000000003 165.91000000000003 C 335.3598682049357 165.91000000000003 335.53000000000003 166.08013179506432 335.53000000000003 166.29000000000002 L 335.53000000000003 191.05 C 335.53000000000003 191.2598682049357 335.70013179506435 191.43 335.91 191.43 L 362.68 191.43 C 362.8898682049357 191.43 363.06 191.6001317950643 363.06 191.81" stroke-linecap="round"></path>
    </g>
    <g transform="matrix(0.842181, 0, 0, 0.862281, 76.819489, 198.514114)" id="SvgjsG1482" style="">
        <rect style="stroke: none; stroke-width: 1; stroke-dasharray: none; stroke-linecap: butt; stroke-dashoffset: 0; stroke-linejoin: miter; stroke-miterlimit: 4; fill: rgb(0,0,0); fill-rule: nonzero; opacity: 1;" vector-effect="non-scaling-stroke" x="-3.45" y="-3.45" rx="0.41" ry="0.41" width="6.9" height="6.9"></rect>
    </g>
    <g transform="matrix(0.842181, 0, 0, 0.862281, 30.305071, 226.581985)" id="SvgjsG1482" style="">
        <rect style="stroke: none; stroke-width: 1; stroke-dasharray: none; stroke-linecap: butt; stroke-dashoffset: 0; stroke-linejoin: miter; stroke-miterlimit: 4; fill: rgb(0,0,0); fill-rule: nonzero; opacity: 1;" vector-effect="non-scaling-stroke" x="-8.96" y="-8.6" rx="0.43" ry="0.43" width="17.92" height="17.2"></rect>
    </g>
    <g transform="matrix(0.842181, 0, 0, 0.862281, 265.07962, 227.094376)" id="SvgjsG1482" style="">
        <rect style="stroke: none; stroke-width: 1; stroke-dasharray: none; stroke-linecap: butt; stroke-dashoffset: 0; stroke-linejoin: miter; stroke-miterlimit: 4; fill: rgb(0,0,0); fill-rule: nonzero; opacity: 1;" vector-effect="non-scaling-stroke" x="-9.03" y="-8.57" rx="0.38" ry="0.38" width="18.06" height="17.14"></rect>
    </g>
    <g transform="matrix(0.842181, 0, 0, 0.862281, 208.808899, 230.493515)" id="SvgjsG1482" style="">
        <rect style="stroke: none; stroke-width: 1; stroke-dasharray: none; stroke-linecap: butt; stroke-dashoffset: 0; stroke-linejoin: miter; stroke-miterlimit: 4; fill: rgb(0,0,0); fill-rule: nonzero; opacity: 1;" vector-effect="non-scaling-stroke" x="-2.92" y="-4.16" rx="0.44" ry="0.44" width="5.84" height="8.32"></rect>
    </g>
    <g transform="matrix(0.842181, 0, 0, 0.862281, 113.370216, 291.39682)" style="">
        <path style="stroke: none; stroke-width: 1; stroke-dasharray: none; stroke-linecap: butt; stroke-dashoffset: 0; stroke-linejoin: miter; stroke-miterlimit: 4; fill: rgb(0,0,0); fill-rule: nonzero; opacity: 1;" vector-effect="non-scaling-stroke" transform=" translate(-219.49, -282.38)" d="M 278.67 260.03 C 278.67 270.4239989918155 270.24399899181554 278.84999999999997 259.85 278.84999999999997 C 249.4560010081845 278.84999999999997 241.03000000000003 270.4239989918155 241.03000000000003 260.03 C 241.03000000000003 249.63600100818445 249.4560010081845 241.20999999999998 259.85 241.20999999999998 C 270.24399899181554 241.20999999999998 278.67 249.63600100818442 278.67 260.03 M 252.21 251.09999999999997 C 252.21 250.2141769239359 251.8581081531795 249.36463485485334 251.23173664916308 248.7382633508369 C 250.60536514514664 248.11189184682047 249.75582307606408 247.75999999999996 248.87 247.75999999999996 C 247.98417692393593 247.75999999999996 247.13463485485337 248.11189184682047 246.50826335083693 248.7382633508369 C 245.8818918468205 249.36463485485334 245.53 250.2141769239359 245.53 251.09999999999997 C 245.53 251.98582307606404 245.8818918468205 252.8353651451466 246.50826335083693 253.46173664916304 C 247.13463485485337 254.08810815317946 247.98417692393593 254.43999999999997 248.87 254.43999999999997 C 249.75582307606408 254.43999999999997 250.60536514514664 254.08810815317946 251.23173664916308 253.46173664916304 C 251.8581081531795 252.8353651451466 252.21 251.98582307606404 252.21 251.09999999999997 M 267.48 260.10999999999996 C 267.48 258.1076155017114 266.6845558552411 256.1872434593242 265.2686561979584 254.7713438020415 C 263.8527565406758 253.35544414475885 261.93238449828857 252.55999999999995 259.93 252.55999999999995 C 257.92761550171144 252.55999999999995 256.00724345932423 253.35544414475885 254.59134380204156 254.7713438020415 C 253.1754441447589 256.1872434593242 252.38 258.1076155017114 252.38 260.10999999999996 C 252.38 262.1123844982885 253.1754441447589 264.03275654067573 254.59134380204156 265.4486561979584 C 256.00724345932423 266.86455585524106 257.92761550171144 267.65999999999997 259.93 267.65999999999997 C 261.93238449828857 267.65999999999997 263.8527565406758 266.86455585524106 265.2686561979585 265.44865619795837 C 266.6845558552411 264.03275654067573 267.48 262.1123844982885 267.48 260.10999999999996 M 185.9 299.35 L 190.99 299.35 C 191.1998682049357 299.35 191.37 299.52013179506434 191.37 299.73 L 191.37 323.17 C 191.37 323.3798682049357 191.1998682049357 323.55 190.99 323.55 L 160.69 323.55 C 160.4801317950643 323.55 160.31 323.3798682049357 160.31 323.17 L 160.31 318.02000000000004 C 160.31 317.81013179506436 160.4801317950643 317.64000000000004 160.69 317.64000000000004 L 185.14 317.64000000000004 C 185.3498682049357 317.64000000000004 185.51999999999998 317.4698682049357 185.51999999999998 317.26000000000005 L 185.51999999999998 299.73 C 185.51999999999998 299.52013179506434 185.69013179506427 299.35 185.89999999999998 299.35" stroke-linecap="round"></path>
    </g>
    <g transform="matrix(0.842181, 0, 0, 0.862281, 148.016281, 333.860962)" style="">
        <path style="stroke: none; stroke-width: 1; stroke-dasharray: none; stroke-linecap: butt; stroke-dashoffset: 0; stroke-linejoin: miter; stroke-miterlimit: 4; fill: rgb(0,0,0); fill-rule: nonzero; opacity: 1;" vector-effect="non-scaling-stroke" transform=" translate(-260.63, -331.5)" d="M 206.85 299.55 L 211.92 299.55 C 212.034043090631 299.55 212.14341527317757 299.59530344135715 212.2240559159102 299.6759440840898 C 212.30469655864286 299.75658472682244 212.35 299.865956909369 212.35 299.98 L 212.35 344.25 C 212.35 344.364043090631 212.30469655864286 344.4734152731776 212.2240559159102 344.5540559159102 C 212.14341527317757 344.6346965586429 212.034043090631 344.68 211.92 344.68 L 191.82 344.68 C 191.70595690936898 344.68 191.5965847268224 344.72530344135714 191.51594408408977 344.8059440840898 C 191.43530344135712 344.88658472682243 191.39 344.995956909369 191.39 345.11 L 191.39 363.11 C 191.39 363.224043090631 191.34469655864285 363.3334152731776 191.2640559159102 363.41405591591024 C 191.18341527317756 363.4946965586429 191.074043090631 363.54 190.95999999999998 363.54 L 185.98 363.54 C 185.86595690936898 363.54 185.7565847268224 363.4946965586429 185.67594408408976 363.41405591591024 C 185.59530344135712 363.3334152731776 185.54999999999998 363.224043090631 185.54999999999998 363.11 L 185.54999999999998 345.09000000000003 C 185.54999999999998 344.975956909369 185.50469655864285 344.86658472682245 185.4240559159102 344.7859440840898 C 185.34341527317756 344.70530344135716 185.234043090631 344.66 185.11999999999998 344.66 L 158.64 344.66 C 158.52595690936897 344.66 158.4165847268224 344.6146965586429 158.33594408408976 344.53405591591024 C 158.2553034413571 344.4534152731776 158.20999999999998 344.34404309063103 158.20999999999998 344.23 L 158.20999999999998 339.28000000000003 C 158.20999999999998 339.165956909369 158.2553034413571 339.05658472682245 158.33594408408976 338.9759440840898 C 158.4165847268224 338.89530344135716 158.52595690936897 338.85 158.64 338.85 L 185.14 338.85 C 185.254043090631 338.85 185.36341527317757 338.8046965586429 185.4440559159102 338.72405591591024 C 185.52469655864286 338.6434152731776 185.57 338.53404309063103 185.57 338.42 L 185.57 334.47 C 185.57 334.355956909369 185.61530344135713 334.24658472682245 185.69594408408977 334.1659440840898 C 185.77658472682242 334.08530344135715 185.88595690936899 334.04 186 334.04 L 190.9 334.04 C 191.01404309063102 334.04 191.12341527317759 334.08530344135715 191.20405591591023 334.1659440840898 C 191.28469655864288 334.24658472682245 191.33 334.355956909369 191.33 334.47 L 191.33 338.43 C 191.33 338.544043090631 191.37530344135715 338.6534152731776 191.4559440840898 338.73405591591023 C 191.53658472682244 338.8146965586429 191.645956909369 338.86 191.76000000000002 338.86 L 205.99 338.86 C 206.10404309063102 338.86 206.2134152731776 338.8146965586429 206.29405591591023 338.73405591591023 C 206.37469655864288 338.6534152731776 206.42000000000002 338.544043090631 206.42000000000002 338.43 L 206.42000000000002 299.98 C 206.42000000000002 299.865956909369 206.46530344135715 299.75658472682244 206.5459440840898 299.6759440840898 C 206.62658472682244 299.59530344135715 206.735956909369 299.55 206.85000000000002 299.55 M 346.17 339.52 L 346.17 344.46999999999997 C 346.17 344.584043090631 346.1246965586429 344.69341527317755 346.04405591591023 344.7740559159102 C 345.9634152731776 344.85469655864284 345.854043090631 344.9 345.74 344.9 L 336.05 344.9 C 335.935956909369 344.9 335.82658472682243 344.9453034413571 335.7459440840898 345.02594408408976 C 335.66530344135714 345.1065847268224 335.62 345.21595690936897 335.62 345.33 L 335.62 355.78999999999996 C 335.62 355.904043090631 335.57469655864287 356.01341527317754 335.4940559159102 356.0940559159102 C 335.4134152731776 356.17469655864284 335.304043090631 356.21999999999997 335.19 356.21999999999997 L 330.24 356.21999999999997 C 330.125956909369 356.21999999999997 330.01658472682243 356.17469655864284 329.9359440840898 356.0940559159102 C 329.85530344135714 356.01341527317754 329.81 355.904043090631 329.81 355.78999999999996 L 329.81 345.28999999999996 C 329.81 345.17595690936895 329.76469655864287 345.0665847268224 329.6840559159102 344.98594408408974 C 329.6034152731776 344.9053034413571 329.494043090631 344.85999999999996 329.38 344.85999999999996 L 309.04 344.85999999999996 C 308.925956909369 344.85999999999996 308.81658472682244 344.8146965586428 308.7359440840898 344.7340559159102 C 308.65530344135715 344.65341527317753 308.61 344.54404309063096 308.61 344.42999999999995 L 308.61 299.91999999999996 C 308.61 299.80595690936894 308.65530344135715 299.6965847268224 308.7359440840898 299.61594408408973 C 308.81658472682244 299.5353034413571 308.925956909369 299.48999999999995 309.04 299.48999999999995 L 314.05 299.48999999999995 C 314.164043090631 299.48999999999995 314.2734152731776 299.5353034413571 314.35405591591024 299.61594408408973 C 314.4346965586429 299.6965847268224 314.48 299.80595690936894 314.48 299.91999999999996 L 314.48 317.84999999999997 C 314.48 317.964043090631 314.52530344135715 318.07341527317755 314.6059440840898 318.1540559159102 C 314.68658472682245 318.23469655864284 314.795956909369 318.28 314.91 318.28 L 329.37 318.28 C 329.484043090631 318.28 329.5934152731776 318.23469655864284 329.67405591591023 318.1540559159102 C 329.7546965586429 318.07341527317755 329.8 317.964043090631 329.8 317.84999999999997 L 329.8 299.9 C 329.8 299.78595690936896 329.84530344135715 299.6765847268224 329.9259440840898 299.59594408408975 C 330.00658472682244 299.5153034413571 330.115956909369 299.46999999999997 330.23 299.46999999999997 L 335.17 299.46999999999997 C 335.28404309063103 299.46999999999997 335.3934152731776 299.5153034413571 335.47405591591024 299.59594408408975 C 335.5546965586429 299.6765847268224 335.6 299.78595690936896 335.6 299.9 L 335.6 317.81 C 335.6 317.924043090631 335.64530344135716 318.0334152731776 335.7259440840898 318.1140559159102 C 335.80658472682245 318.1946965586429 335.915956909369 318.24 336.03000000000003 318.24 L 362.63000000000005 318.24 C 362.74404309063107 318.24 362.85341527317763 318.28530344135714 362.9340559159103 318.3659440840898 C 363.0146965586429 318.44658472682244 363.06000000000006 318.555956909369 363.06000000000006 318.67 L 363.06000000000006 323.79 C 363.06000000000006 323.90404309063103 363.0146965586429 324.0134152731776 362.9340559159103 324.09405591591025 C 362.85341527317763 324.1746965586429 362.74404309063107 324.22 362.63000000000005 324.22 L 336.06000000000006 324.22 C 335.94595690936904 324.22 335.8365847268225 324.26530344135716 335.75594408408983 324.3459440840898 C 335.6753034413572 324.42658472682245 335.63000000000005 324.535956909369 335.63000000000005 324.65000000000003 L 335.63000000000005 338.66 C 335.63000000000005 338.77404309063104 335.6753034413572 338.8834152731776 335.75594408408983 338.96405591591025 C 335.8365847268225 339.0446965586429 335.94595690936904 339.09000000000003 336.06000000000006 339.09000000000003 L 345.74000000000007 339.09000000000003 C 345.8540430906311 339.09000000000003 345.96341527317765 339.13530344135717 346.0440559159103 339.2159440840898 C 346.12469655864294 339.29658472682246 346.1700000000001 339.405956909369 346.1700000000001 339.52000000000004 M 329.66800000000006 324.58700000000005 C 329.66800027664397 324.4595226342517 329.61729174507036 324.3372809646 329.52705788591373 324.2472347018241 C 329.43682402675705 324.1571884390482 329.3144770891048 324.10673442215443 329.18700000000007 324.107 L 315.02700000000004 324.132 C 314.8995226342517 324.1319997233561 314.7772809646 324.1827082549297 314.6872347018241 324.27294211408633 C 314.5971884390482 324.363175973243 314.54673442215443 324.48552291089527 314.547 324.613 L 314.572 338.773 C 314.5719997233561 338.9004773657484 314.6227082549297 339.0227190354001 314.71294211408633 339.112765298176 C 314.803175973243 339.2028115609519 314.92552291089527 339.25326557784564 315.053 339.25300000000004 L 329.213 339.22800000000007 C 329.34047736574837 339.22800027664397 329.4627190354001 339.17729174507036 329.552765298176 339.08705788591374 C 329.6428115609519 338.99682402675705 329.69326557784564 338.8744770891048 329.69300000000004 338.74700000000007 z" stroke-linecap="round"></path>
    </g>
    <g transform="matrix(0.842181, 0, 0, 0.862281, 30.305071, 313.872253)" id="SvgjsG1482" style="">
        <rect style="stroke: none; stroke-width: 1; stroke-dasharray: none; stroke-linecap: butt; stroke-dashoffset: 0; stroke-linejoin: miter; stroke-miterlimit: 4; fill: rgb(0,0,0); fill-rule: nonzero; opacity: 1;" vector-effect="non-scaling-stroke" x="-8.96" y="-8.61" rx="0.39" ry="0.39" width="17.92" height="17.22"></rect>
    </g>
    <g transform="matrix(0.842181, 0, 0, 0.862281, 265.07962, 314.03479)" id="SvgjsG1482" style="">
        <rect style="stroke: none; stroke-width: 1; stroke-dasharray: none; stroke-linecap: butt; stroke-dashoffset: 0; stroke-linejoin: miter; stroke-miterlimit: 4; fill: rgb(0,0,0); fill-rule: nonzero; opacity: 1;" vector-effect="non-scaling-stroke" x="-9.03" y="-8.66" rx="0.37" ry="0.37" width="18.06" height="17.32"></rect>
    </g>
    <g transform="matrix(0.842181, 0, 0, 0.862281, 231.884644, 342.696259)" id="SvgjsG1482" style="">
        <rect style="stroke: none; stroke-width: 1; stroke-dasharray: none; stroke-linecap: butt; stroke-dashoffset: 0; stroke-linejoin: miter; stroke-miterlimit: 4; fill: rgb(0,0,0); fill-rule: nonzero; opacity: 1;" vector-effect="non-scaling-stroke" x="-3.35" y="-3.35" rx="0.42" ry="0.42" width="6.7" height="6.7"></rect>
    </g>
    <g transform="matrix(0.842181, 0, 0, 0.862281, 191.025894, 362.141449)" id="SvgjsG1482" style="">
        <rect style="stroke: none; stroke-width: 1; stroke-dasharray: none; stroke-linecap: butt; stroke-dashoffset: 0; stroke-linejoin: miter; stroke-miterlimit: 4; fill: rgb(0,0,0); fill-rule: nonzero; opacity: 1;" vector-effect="non-scaling-stroke" x="-2.92" y="-7.79" rx="0.41" ry="0.41" width="5.84" height="15.58"></rect>
    </g>
    <g transform="matrix(0.842181, 0, 0, 0.862281, 104.980789, 362.672455)" id="SvgjsG1482" style="">
        <rect style="stroke: none; stroke-width: 1; stroke-dasharray: none; stroke-linecap: butt; stroke-dashoffset: 0; stroke-linejoin: miter; stroke-miterlimit: 4; fill: rgb(0,0,0); fill-rule: nonzero; opacity: 1;" vector-effect="non-scaling-stroke" x="-2.92" y="-7.98" rx="0.44" ry="0.44" width="5.84" height="15.96"></rect>
    </g>
    <g transform="matrix(0.842181, 0, 0, 0.862281, 104.229286, 391.546387)" id="SvgjsG1482" style="">
        <rect style="stroke: none; stroke-width: 1; stroke-dasharray: none; stroke-linecap: butt; stroke-dashoffset: 0; stroke-linejoin: miter; stroke-miterlimit: 4; fill: rgb(0,0,0); fill-rule: nonzero; opacity: 1;" vector-effect="non-scaling-stroke" x="-8.93" y="-8.58" rx="0.31" ry="0.31" width="17.86" height="17.16"></rect>
    </g>
    <g transform="matrix(0.842181, 0, 0, 0.862281, 191.077713, 392.283569)" id="SvgjsG1482" style="">
        <rect style="stroke: none; stroke-width: 1; stroke-dasharray: none; stroke-linecap: butt; stroke-dashoffset: 0; stroke-linejoin: miter; stroke-miterlimit: 4; fill: rgb(0,0,0); fill-rule: nonzero; opacity: 1;" vector-effect="non-scaling-stroke" x="-8.99" y="-8.59" rx="0.37" ry="0.37" width="17.98" height="17.18"></rect>
    </g>
    <g transform="matrix(7.048419, 0, 0, 7.223161, 669.045044, 269.870209)" style="">
        <path style="stroke: none; stroke-width: 1; stroke-dasharray: none; stroke-linecap: butt; stroke-dashoffset: 0; stroke-linejoin: miter; stroke-miterlimit: 4; fill: rgb(0,0,0); fill-rule: nonzero; opacity: 1;" vector-effect="non-scaling-stroke" transform=" translate(-50.53, -26.09)" d="M 11.181 13.396999999999998 C 11.1822109 13.719809999999999 11.181390619999998 14.043959999999998 11.181390619999998 14.367599999999998 C 10.98209062 19.116 11.171664219999998 23.8788 10.661310619999998 28.618599999999997 C 10.481470619999998 30.288599999999995 10.475800619999998 31.977299999999996 10.389120619999998 33.657399999999996 C 10.374120619999998 33.94821999999999 10.331192619999998 34.239039999999996 10.335644619999998 34.52947999999999 C 10.363574619999998 36.37127999999999 9.374044619999998 37.681279999999994 7.971344619999998 38.64507999999999 C 7.313544619999998 39.09711999999999 6.421144619999998 39.25063999999999 5.610244619999998 39.423159999999996 C 4.887644619999998 39.576679999999996 4.131844619999998 39.57827999999999 3.389344619999998 39.63213999999999 C 2.362144619999998 39.70627999999999 2.090344619999998 39.486749999999994 2.019044619999998 38.48703999999999 C 1.987052619999998 38.03744 1.9967786199999982 37.58095999999999 2.0348646199999982 37.13173999999999 C 2.0996686199999983 36.36617999999999 2.318804619999998 36.10533999999999 3.1050646199999985 36.00084 C 5.910864619999998 35.627359999999996 6.419264619999998 34.526039999999995 6.578064619999998 32.28774 C 6.8028646199999985 29.12424 6.977044619999998 25.956139999999998 7.0973446199999985 22.78734 C 7.215624619999999 19.68174 7.236284619999998 16.57214 7.306764619999998 13.46454 C 7.328248619999998 12.516739999999999 7.510124619999998 12.31864 8.421964619999999 12.26754 C 9.00280462 12.235118 9.588164619999999 12.216096 10.168564619999998 12.249298 C 10.840124619999997 12.287384 11.067364619999998 12.535278 11.166564619999997 13.203218 C 11.175861419999997 13.267202 11.180705619999998 13.332398 11.181095619999997 13.396808 z M 28.701 19.54 C 28.71518 20.8022 28.7045547 22.0642 28.7045547 22.6965 C 28.4619347 26.8213 28.3189747 30.3169 28.0329947 33.8005 C 27.7854947 36.8145 25.7933947 38.6777 23.0577947 39.4593 C 22.5506747 39.60391 21.9353947 39.63348 21.434794699999998 39.490511 C 19.402994699999997 38.910070999999995 17.5883947 37.961411 16.3883947 36.112410999999994 C 15.7929547 35.194970999999995 15.469714699999999 34.19691099999999 15.385494699999999 33.108110999999994 C 15.003934699999999 28.177310999999996 15.219434699999999 23.270910999999995 15.966774699999998 18.386110999999993 C 16.025526699999997 18.002950999999992 16.1198947 17.625430999999992 16.1875547 17.243110999999992 C 16.6075947 14.860610999999992 18.0661547 13.411310999999992 20.3019547 12.660710999999992 C 20.5474247 12.578482999999991 20.8058747 12.527430999999993 21.0403947 12.422510999999991 C 22.0711947 11.960750999999991 23.1373947 12.09239099999999 24.1746947 12.305050999999992 C 26.6203947 12.80573099999999 28.3394947 14.728050999999992 28.6074947 17.21545099999999 C 28.6905427 17.98505099999999 28.6925707 18.765150999999992 28.7010867 19.54045099999999 z M 23.352 31.942 C 23.47594 29.551000000000002 23.55368 27.158 23.64926 24.766 L 23.601916000000003 24.7623672 C 23.601916000000003 23.7262672 23.606759600000004 22.6904672 23.600666000000004 21.6543672 C 23.593790800000004 20.522267199999998 23.623752000000003 19.3864672 23.539922000000004 18.2595672 C 23.506289000000006 17.8087272 23.241802000000003 17.3620072 23.025522000000006 16.9423672 C 22.833142000000006 16.5688872 22.484402000000006 16.5611972 22.097962000000006 16.6592072 C 21.324722000000005 16.8556472 20.973162000000006 17.4442072 20.844362000000007 18.123407200000003 C 20.536942000000007 19.7412072 20.12256200000001 21.370307200000003 20.088922000000007 23.001807200000002 C 20.022478000000007 26.234907200000002 20.166266000000007 29.4730072 20.267512000000007 32.707807200000005 C 20.28653600000001 33.3105272 20.488252000000006 33.913307200000006 20.652712000000008 34.503007200000006 C 20.77583200000001 34.944087200000006 21.107592000000007 35.210247200000005 21.57463200000001 35.24788720000001 C 22.067152000000007 35.287575200000006 22.472192000000007 35.099217200000005 22.714032000000007 34.66136720000001 C 22.85297200000001 34.40984720000001 22.965592000000008 34.13116720000001 23.025122000000007 33.85128720000001 C 23.15918200000001 33.219807200000005 23.318362000000008 32.58268720000001 23.352002000000006 31.941887200000007 z M 45.16 16.892 C 44.1279 16.959228 43.094199999999994 16.982428 41.904999999999994 17.031019999999998 C 41.904999999999994 18.92062 41.895273599999996 20.697119999999998 41.90703119999999 22.47422 C 41.942265199999994 27.815019999999997 41.98562319999999 33.15522 42.026131199999995 38.496219999999994 C 42.027732799999995 38.690639999999995 42.03906119999999 38.885479999999994 42.02652181999999 39.07869999999999 C 41.962537819999994 40.03909999999999 41.543321819999996 40.42229999999999 40.59792181999999 40.35459999999999 C 40.01788181999999 40.31287999999999 39.43702181999999 40.25010999999999 38.86262181999999 40.15935999999999 C 38.377341819999984 40.082407999999994 38.033061819999986 39.852329999999995 38.02006181999999 39.27551999999999 C 38.00142881999999 38.437039999999996 37.90990181999999 37.60021999999999 37.897761819999985 36.762119999999996 C 37.81795781999998 31.196119999999997 37.74667181999998 25.630119999999998 37.683891819999985 20.064119999999996 C 37.67455581999999 19.223199999999995 37.730063819999984 18.381519999999995 37.74017981999999 17.540219999999994 C 37.74303141999999 17.322719999999993 37.68713181999999 17.104379999999995 37.647015819999986 16.799779999999995 C 36.499115819999986 16.705795999999996 35.37871581999998 16.598449999999996 34.25621581999999 16.525949999999995 C 33.079115819999984 16.450205999999994 32.83611581999999 16.278449999999996 32.74581581999999 15.103749999999994 C 32.69151981999999 14.400589999999994 32.72312081999999 13.678749999999994 32.81788781999999 12.979249999999995 C 32.92604781999999 12.178449999999994 33.32180781999999 11.856849999999994 34.12788781999999 11.827649999999995 C 34.708327819999994 11.806594999999994 35.29158781999999 11.859251999999994 35.873687819999994 11.881517999999994 C 38.201187819999994 11.971441999999994 40.52928781999999 12.045147999999994 42.85568781999999 12.161397999999995 C 43.75572781999999 12.206357999999994 44.66668781999999 12.276437999999995 45.544087819999994 12.466827999999994 C 46.504487819999994 12.675417999999993 46.69238781999999 12.993787999999995 46.68798782 13.969127999999994 C 46.685565919999995 14.517567999999994 46.67826142 15.073727999999994 46.58794782 15.611627999999994 C 46.433217819999996 16.531507999999995 46.089307819999995 16.830827999999993 45.16014782 16.891227999999995 z M 56.614 16.444 C 56.26564 16.4516952 55.9152 16.444781239999998 55.5997 16.444781239999998 C 55.25134 17.59958124 55.1521 22.82078124 55.43322 24.313981239999997 L 58.98882 24.313981239999997 C 59.31288 24.313981239999997 59.636939999999996 24.306676439999997 59.96058 24.315582839999998 C 60.8663 24.341090839999996 61.18428 24.66757284 61.16888 25.563982839999998 C 61.1611848 26.016022839999998 61.117824 26.467222839999998 61.119036 26.919282839999997 C 61.1218876 27.879242839999996 60.897906 28.14418284 59.950036000000004 28.186282839999997 C 58.817936 28.23651884 57.685036000000004 28.265266839999995 56.552036 28.298902839999997 C 56.264456 28.307418439999996 55.976076 28.300113739999997 55.613516000000004 28.300113739999997 L 55.613516000000004 35.905913739999995 C 55.876796000000006 35.905913739999995 56.15267600000001 35.90712463999999 56.428076000000004 35.905913739999995 C 58.337076 35.897007339999995 60.246476 35.89739813999999 62.155276 35.872280739999994 C 62.768116 35.864194739999995 63.140356 36.127860739999996 63.299476 36.70264073999999 C 63.428695999999995 37.16928073999999 63.584635999999996 37.63548073999999 63.647406 38.11264073999999 C 63.750685999999995 38.89684073999999 63.346036 39.42904073999999 62.561006 39.56554073999999 C 62.149485999999996 39.63722073999999 61.722966 39.63276873999999 61.302906 39.64370473999999 C 58.421806000000004 39.71702473999999 55.540506 39.77858473999999 52.660106 39.85796473999999 C 51.381306 39.893198739999995 51.002206 39.64409473999999 50.903006 38.366164739999995 C 50.823201999999995 37.338164739999996 50.891639 36.29676473999999 50.921209 35.262164739999996 C 51.029368999999996 31.507764739999995 51.206789 27.754164739999997 51.237579 23.999164739999998 C 51.250938 22.35546474 51.005078999999995 20.70606474 50.819979 19.065164739999997 C 50.615409 17.250964739999997 50.637279 15.447264739999996 50.872634999999995 13.640764739999996 C 51.025335 12.468564739999996 51.46035499999999 12.093064739999996 52.654835 12.071164739999997 C 55.535635 12.018508739999996 58.416035 11.957764739999996 61.296034999999996 11.888904739999997 C 63.082735 11.845976739999998 63.08233499999999 11.836676739999998 63.100534999999994 13.578804739999997 C 63.105378599999995 14.064844739999998 63.103777199999996 14.550924739999997 63.11631599999999 15.036604739999998 C 63.13088599999999 15.608564739999998 62.83193599999999 15.962564739999998 62.31631599999999 16.111204739999998 C 61.91531599999999 16.22706474 61.492836 16.31011474 61.07691599999999 16.326324739999997 C 59.59031599999999 16.384644739999995 58.10221599999999 16.409760739999996 56.61451599999999 16.443784739999998 z M 80.00300000000001 21.361 C 78.98220000000002 21.310376 77.96940000000001 21.10042 77.03380000000001 20.75528 C 76.92040000000001 19.688779999999998 76.80657000000001 18.697979999999998 76.71220000000001 17.70518 C 76.64899600000001 17.040059999999997 76.40072 16.52518 75.7198 16.301579999999998 C 75.01784 16.071109999999997 74.32400000000001 16.119699999999998 73.8302 16.669349999999998 C 73.43364000000001 17.110429999999997 73.06988000000001 17.66051 72.91636000000001 18.22355 C 72.63726000000001 19.24795 72.48252000000001 20.31275 72.35212000000001 21.36995 C 72.02282000000001 24.04255 71.94992000000002 26.72835 72.07954000000001 29.41755 C 72.133796 30.54805 72.18036000000001 31.68385 72.33548 32.80215 C 72.42700400000001 33.461549999999995 72.62427000000001 34.14975 72.95032 34.72455 C 73.67292 35.99805 74.79292000000001 35.94375 75.44582 34.643106 C 76.03394 33.472506 76.32154 32.213206 76.40698 30.907706000000005 C 76.47502800000001 29.868306000000004 76.53983000000001 29.746806000000003 77.58688000000001 29.641906000000006 C 78.38644000000001 29.561710000000005 79.19978 29.599798000000007 80.00628 29.620851000000005 C 80.47492 29.632999000000005 80.70984 29.961091000000007 80.709 30.396131000000004 C 80.7069688 31.332211000000004 80.7069688 32.272331 80.619076 33.202331 C 80.55872400000001 33.841131000000004 80.37727600000001 34.473031 80.206716 35.095931 C 79.411596 38.003031 77.200816 39.296331 74.495516 39.839131 C 72.66911599999999 40.205691 71.22951599999999 39.284971 70.13151599999999 37.866931 C 69.77952599999999 37.412491 69.46639599999999 36.888331 69.290196 36.345531 C 68.761596 34.716031 68.29375599999999 33.073931 68.217996 31.333531 C 68.140612 29.556131 67.924326 27.785631000000002 67.791476 26.010331 C 67.558586 22.898731 67.688196 19.798731 68.211116 16.723131000000002 C 68.939396 12.441131000000002 73.64791600000001 10.963131000000002 76.497516 12.293931000000002 C 76.90659600000001 12.485101000000002 77.364316 12.581121000000003 77.755616 12.799451000000003 C 78.171216 13.031561000000004 78.617576 13.290771000000003 78.90641600000001 13.653331000000003 C 80.37921600000001 15.502031000000002 81.15001600000001 17.643931000000002 81.35211600000001 19.986931000000002 C 81.427468 20.858611000000003 80.928836 21.407531000000002 80.00291600000001 21.361331000000003 z M 90.24680000000001 24.372999999999998 C 90.23586200000001 24.529759999999996 90.268167 24.688779999999998 90.29086400000001 24.967439999999996 C 91.15566400000002 25.010799999999996 91.92726400000001 25.061851999999995 92.69936400000002 25.084119999999995 C 93.34380400000002 25.102752999999996 93.98906400000001 25.087752799999993 94.71856400000001 25.087752799999993 C 94.76192400000002 24.684312799999994 94.82836400000002 24.338792799999993 94.83122400000002 23.993352799999993 C 94.85595000000002 20.982152799999994 94.87095000000002 17.970952799999992 94.88513200000003 14.959352799999992 C 94.88716320000003 14.506112799999993 94.85720200000003 14.052432799999993 94.86653800000003 13.599152799999992 C 94.88274900000003 12.833192799999992 95.16829800000004 12.516452799999993 95.91433800000003 12.524952799999992 C 96.65761800000003 12.533038799999993 97.40293800000003 12.587296799999992 98.14173800000003 12.671552799999992 C 98.73353800000004 12.739208799999991 99.01425800000003 13.082312799999992 99.04017800000003 13.746552799999991 C 99.06771700000003 14.45823279999999 99.04424040000002 15.171552799999992 99.03857640000003 15.884352799999991 C 99.00697440000002 19.80205279999999 98.87896640000002 23.72195279999999 98.97373240000003 27.63635279999999 C 99.04216840000004 30.45595279999999 99.02111640000003 33.26875279999999 98.93240440000004 36.08395279999999 C 98.90689640000004 36.89123279999999 98.82549440000004 37.69975279999999 98.72138440000003 38.50135279999999 C 98.62740040000003 39.22683279999999 98.41232440000003 39.396552799999995 97.64028440000003 39.47515279999999 C 97.18984440000003 39.52093279999999 96.73740440000003 39.56995679999999 96.28578440000003 39.57034879999999 C 95.07918440000003 39.57116911999999 94.70198440000003 39.21026879999999 94.67248440000003 38.03274879999999 C 94.65142940000003 37.19102879999999 94.65873440000003 36.348548799999996 94.65510140000004 35.506048799999995 C 94.64455440000003 33.206148799999994 94.63603940000003 30.906448799999996 94.62307040000003 28.606448799999995 C 94.62225008000003 28.480078799999994 94.59064840000003 28.353708799999996 94.56025840000004 28.128528799999994 L 90.23715840000004 28.128528799999994 C 90.22176740000005 28.472828799999995 90.19340640000004 28.817528799999995 90.19258640000004 29.162628799999993 C 90.18813320000004 31.398128799999995 90.21161040000004 33.63382879999999 90.17758640000004 35.86822879999999 C 90.16504740000003 36.70506879999999 90.07997040000004 37.55082879999999 89.92442640000004 38.37302879999999 C 89.75958640000005 39.245548799999995 89.41366640000004 39.513728799999996 88.51812640000004 39.56192879999999 C 87.94092640000004 39.59270979999999 87.35322640000004 39.55583519999999 86.77922640000004 39.48048479999999 C 85.76462640000004 39.34681479999999 85.48472640000004 39.07584479999999 85.45222640000004 38.03808479999999 C 85.39429840000004 36.19388479999999 85.30277640000004 34.34158479999999 85.40890640000005 32.503284799999996 C 85.63613640000005 28.558084799999996 85.81962640000005 24.616084799999996 85.84754640000006 20.662284799999995 C 85.86414840000006 18.272484799999994 86.16875640000005 15.884284799999996 86.35062640000005 13.495884799999995 C 86.38504040000005 13.046684799999996 86.52921640000005 12.634324799999995 87.06914640000005 12.620964799999996 C 87.94082640000005 12.599909799999995 88.81734640000005 12.572372799999997 89.68454640000004 12.639597799999995 C 90.48210640000005 12.701589799999995 90.76394640000005 13.018347799999995 90.85104640000004 13.807397799999995 C 90.89682640000004 14.222157799999994 90.87132040000004 14.647877799999995 90.84499160000004 15.066697799999995 C 90.64937160000004 18.168997799999996 90.44403160000005 21.270297799999994 90.24675160000004 24.372697799999994 z" stroke-linecap="round"></path>
    </g>
</svg>
</g>
</g>
</svg>